<?xml version="1.0" encoding="utf-8"?>
<!-- Generator: Adobe Illustrator 21.0.0, SVG Export Plug-In . SVG Version: 6.00 Build 0)  -->
<svg version="1.1" xmlns="http://www.w3.org/2000/svg" xmlns:xlink="http://www.w3.org/1999/xlink" x="0px" y="0px"
	 viewBox="0 0 356.2 207.4" style="enable-background:new 0 0 356.2 207.4;" xml:space="preserve">
<style type="text/css">
	.st0{display:none;fill:#4224D1;}
	.st1{fill:#999999;}
	.st2{fill:#FFFFFF;}
</style>
<g id="レイヤー_2">
	<rect x="-151.9" y="-112.8" class="st0" width="593" height="593"/>
</g>
<g id="レイヤー_1">
	<g>
		<g>
			<path class="st1" d="M51.2,89.4c-0.3,0.2-0.5,0.3-0.8,0.5C50.6,89.8,50.9,89.6,51.2,89.4z"/>
			<path class="st1" d="M42.1,95.8c-0.2,0.2-0.4,0.3-0.6,0.5C41.7,96.1,41.9,95.9,42.1,95.8z"/>
			<path class="st1" d="M45.2,93.3c-0.2,0.2-0.4,0.3-0.6,0.5C44.8,93.6,45,93.5,45.2,93.3z"/>
			<path class="st1" d="M40.6,97.1c-0.2,0.1-0.3,0.3-0.5,0.4C40.2,97.4,40.4,97.2,40.6,97.1z"/>
			<path class="st1" d="M49.4,90.5c-0.2,0.1-0.5,0.3-0.7,0.4C48.9,90.8,49.2,90.6,49.4,90.5z"/>
			<path class="st1" d="M46.8,92.2c-0.2,0.1-0.4,0.3-0.6,0.4C46.4,92.5,46.6,92.4,46.8,92.2z"/>
			<path class="st2" d="M16.8,2.8c-17-8-15,4-15,4c-8,79,12,67,26,107c0.1,0.1,0.1,0.3,0.2,0.4c0.9-2.1,1.9-4,3.1-5.9
				c-0.4-1-0.7-2-1.1-3.1C19.4,72.1,4.3,82,10.4,16.6c0,0-1.5-9.9,11.3-3.3c11,5.7,57.2,36.4,58.9,64.9c-0.7,0.2-1.5,0.4-2.2,0.5
				c2.1-0.5,4.2-1,6.2-1.5C99,41.5,33,10.4,16.8,2.8z"/>
			<path class="st1" d="M34.4,103.5c-0.2,0.2-0.3,0.4-0.5,0.6C34.1,103.9,34.3,103.7,34.4,103.5z"/>
			<path class="st1" d="M33.2,105.1c-0.1,0.2-0.3,0.4-0.4,0.6C32.9,105.5,33.1,105.3,33.2,105.1z"/>
			<path class="st1" d="M32.1,106.7c-0.1,0.2-0.2,0.3-0.3,0.5C31.9,107,32,106.9,32.1,106.7z"/>
			<path class="st1" d="M35.7,102c-0.2,0.2-0.3,0.4-0.5,0.6C35.3,102.4,35.5,102.2,35.7,102z"/>
			<path class="st1" d="M36.9,100.6c-0.1,0.2-0.3,0.3-0.4,0.5C36.6,100.9,36.8,100.8,36.9,100.6z"/>
			<path class="st1" d="M43.6,94.5c-0.2,0.2-0.4,0.3-0.6,0.5C43.2,94.8,43.4,94.7,43.6,94.5z"/>
			<path class="st1" d="M65.3,82.8c-0.4,0.2-0.9,0.3-1.3,0.5C64.4,83.2,64.8,83,65.3,82.8z"/>
			<path class="st1" d="M67.4,82c-0.5,0.2-1,0.4-1.5,0.6C66.4,82.4,66.9,82.2,67.4,82z"/>
			<path class="st1" d="M74,79.9c-0.6,0.2-1.2,0.4-1.8,0.5C72.8,80.3,73.4,80.1,74,79.9z"/>
			<path class="st1" d="M71.9,80.5c-1.4,0.4-2.7,0.9-4.1,1.3C69.2,81.4,70.6,81,71.9,80.5z"/>
			<path class="st1" d="M76,79.3c-0.6,0.2-1.1,0.3-1.7,0.5C74.9,79.7,75.5,79.5,76,79.3z"/>
			<path class="st1" d="M53,88.4c-0.3,0.2-0.6,0.3-0.9,0.5C52.4,88.7,52.7,88.6,53,88.4z"/>
			<path class="st1" d="M78.2,78.8c-0.6,0.2-1.2,0.3-1.8,0.5C77,79.1,77.6,78.9,78.2,78.8z"/>
			<path class="st1" d="M54.8,87.4c-0.3,0.2-0.6,0.3-1,0.5C54.2,87.8,54.5,87.6,54.8,87.4z"/>
			<path class="st1" d="M56.8,86.4c-0.4,0.2-0.8,0.4-1.1,0.6C56.1,86.8,56.4,86.6,56.8,86.4z"/>
			<path class="st1" d="M59.4,85.2c-0.6,0.3-1.2,0.6-1.8,0.8C58.1,85.8,58.7,85.5,59.4,85.2z"/>
			<path class="st1" d="M63.2,83.6c-0.4,0.2-0.8,0.3-1.3,0.5C62.4,83.9,62.8,83.8,63.2,83.6z"/>
			<path class="st1" d="M61.3,84.4c-0.5,0.2-0.9,0.4-1.3,0.6C60.4,84.8,60.8,84.6,61.3,84.4z"/>
		</g>
		<path class="st2" d="M31.9,31.3c1,0,2.5,1,4.6,3.4C47,47,58.5,58.6,65.9,64.2C68.1,65.9,75,72,81.3,78
			c-14.5,3.4-29.7,9.2-40.8,19.1c-3.1-1.7-5.8-3.3-7.9-4.4c-6-3-4.5-3.8-1.5-3.8s7.5,0.8,7.5,0.8C14.3,77.3,25.1,75.4,34,75.4
			c4,0,7.6,0.4,7.6,0.4C15.4,64.6,18.7,62.2,26.7,62.2c6.4,0,15.9,1.6,15.9,1.6C19.2,52.1,16.4,48.8,20.4,48.8
			c4.6,0,18.2,4.3,20,4.8c0.1,0,0.1,0,0.2,0.1h0h0c0,0-0.1,0-0.2-0.1C32.3,51,27.4,31.3,31.9,31.3 M31.9,29.3L31.9,29.3
			c-0.7,0-3,0.3-3.6,3.7c-0.5,3,0.5,7.9,2.4,12.4c0.5,1.1,1.2,2.5,2.1,4c-4.6-1.3-9.8-2.5-12.5-2.5c-2.4,0-3.2,1.1-3.4,2
			c-0.4,1.9,1,3.4,5.8,6.4c2.2,1.4,5.2,3.1,9,5.1c-1.7-0.1-3.4-0.2-5-0.2c0,0,0,0,0,0c-3.5,0-7.1,0.4-7.7,3.1
			c-0.4,2,0.4,4.4,12.5,10.2c-6,0.3-9,1.6-9.6,4.2c-0.7,2.7,1.7,5.6,7.8,9.4c-1.3,0.1-2.8,0.6-3.2,2.1c-0.5,2.3,2.1,3.8,5.2,5.3
			c1.3,0.6,2.8,1.5,4.6,2.5c1,0.6,2.1,1.2,3.2,1.8c0.3,0.2,0.6,0.2,1,0.2c0.5,0,1-0.2,1.3-0.5C51.2,90.3,64.6,84,81.7,80
			c0.7-0.2,1.3-0.7,1.5-1.4s0-1.5-0.5-2c-6.2-5.9-13.2-12.1-15.6-13.9c-7.2-5.5-18.6-17-29-29.2C35.7,30.6,33.7,29.3,31.9,29.3
			L31.9,29.3L31.9,29.3z"/>
		<g>
			<path class="st2" d="M312.6,94.5c0.2,0.2,0.4,0.3,0.6,0.5C313,94.8,312.8,94.7,312.6,94.5z"/>
			<path class="st2" d="M315.6,97.1c0.2,0.1,0.3,0.3,0.5,0.4C316,97.4,315.8,97.2,315.6,97.1z"/>
			<path class="st2" d="M314.1,95.8c0.2,0.2,0.4,0.3,0.6,0.5C314.5,96.1,314.3,95.9,314.1,95.8z"/>
			<path class="st2" d="M311,93.3c0.2,0.2,0.4,0.3,0.6,0.5C311.4,93.6,311.2,93.5,311,93.3z"/>
			<path class="st2" d="M309.4,92.2c0.2,0.1,0.4,0.3,0.6,0.4C309.8,92.5,309.6,92.4,309.4,92.2z"/>
			<path class="st2" d="M306.8,90.5c0.2,0.1,0.5,0.3,0.7,0.4C307.2,90.8,307,90.6,306.8,90.5z"/>
			<path class="st2" d="M322.3,104.1c-0.2-0.2-0.3-0.4-0.5-0.6C321.9,103.7,322.1,103.9,322.3,104.1z"/>
			<path class="st2" d="M321,102.6c-0.2-0.2-0.3-0.4-0.5-0.6C320.7,102.2,320.9,102.4,321,102.6z"/>
			<path class="st2" d="M319.7,101.1c-0.1-0.2-0.3-0.3-0.4-0.5C319.4,100.8,319.6,100.9,319.7,101.1z"/>
			<path class="st2" d="M323.4,105.7c-0.1-0.2-0.3-0.4-0.4-0.6C323.1,105.3,323.3,105.5,323.4,105.7z"/>
			<path class="st2" d="M324.5,107.2c-0.1-0.2-0.2-0.3-0.3-0.5C324.2,106.9,324.3,107,324.5,107.2z"/>
			<path class="st2" d="M354.4,6.8c0,0,2-12-15-4c-16.2,7.6-82.1,38.8-67.8,74.5c2.1,0.4,4.1,0.9,6.2,1.5c-0.7-0.2-1.5-0.4-2.2-0.5
				c1.8-28.5,48-59.2,58.9-64.9c12.8-6.6,11.3,3.3,11.3,3.3c6,65.4-9,55.5-19.6,88.6c-0.3,1.1-0.7,2.1-1.1,3.1
				c1.1,1.9,2.2,3.8,3.1,5.9c0.1-0.1,0.1-0.3,0.2-0.4C342.4,73.8,362.4,85.8,354.4,6.8z"/>
			<path class="st2" d="M299.4,86.4c0.4,0.2,0.8,0.4,1.1,0.6C300.1,86.8,299.8,86.6,299.4,86.4z"/>
			<path class="st2" d="M284.3,80.5c1.4,0.4,2.7,0.9,4.1,1.3C287,81.4,285.6,81,284.3,80.5z"/>
			<path class="st2" d="M290.9,82.8c0.4,0.2,0.9,0.3,1.3,0.5C291.8,83.2,291.4,83,290.9,82.8z"/>
			<path class="st2" d="M282.2,79.9c0.6,0.2,1.2,0.4,1.8,0.5C283.4,80.3,282.8,80.1,282.2,79.9z"/>
			<path class="st2" d="M305,89.4c0.3,0.2,0.5,0.3,0.8,0.5C305.6,89.8,305.3,89.6,305,89.4z"/>
			<path class="st2" d="M278,78.8c0.6,0.2,1.2,0.3,1.8,0.5C279.2,79.1,278.6,78.9,278,78.8z"/>
			<path class="st2" d="M280.2,79.3c0.6,0.2,1.1,0.3,1.7,0.5C281.3,79.7,280.7,79.5,280.2,79.3z"/>
			<path class="st2" d="M288.8,82c0.5,0.2,1,0.4,1.5,0.6C289.8,82.4,289.3,82.2,288.8,82z"/>
			<path class="st2" d="M301.4,87.4c0.3,0.2,0.6,0.3,1,0.5C302,87.8,301.7,87.6,301.4,87.4z"/>
			<path class="st2" d="M292.9,83.6c0.4,0.2,0.8,0.3,1.3,0.5C293.8,83.9,293.4,83.8,292.9,83.6z"/>
			<path class="st2" d="M303.2,88.4c0.3,0.2,0.6,0.3,0.9,0.5C303.8,88.7,303.5,88.6,303.2,88.4z"/>
			<path class="st2" d="M296.8,85.2c0.6,0.3,1.2,0.6,1.8,0.8C298.1,85.8,297.4,85.5,296.8,85.2z"/>
			<path class="st2" d="M294.9,84.4c0.5,0.2,0.9,0.4,1.3,0.6C295.8,84.8,295.4,84.6,294.9,84.4z"/>
		</g>
		<path class="st2" d="M324.3,31.3c4.6,0-0.4,19.7-8.4,22.4c-0.1,0-0.2,0.1-0.2,0.1l0,0c0.1,0,0.1,0,0.2-0.1
			c1.8-0.6,15.4-4.8,20-4.8c4,0,1.2,3.2-22.2,14.9c0,0,9.5-1.6,15.9-1.6c8,0,11.2,2.5-14.9,13.6c0,0,3.6-0.4,7.6-0.4
			c8.9,0,19.7,1.9-4.6,14.4c0,0,4.5-0.8,7.5-0.8s4.5,0.8-1.5,3.8c-2.1,1.1-4.8,2.7-7.9,4.4c-11.1-9.9-26.3-15.7-40.8-19.1
			c6.3-6,13.2-12.1,15.4-13.8c7.4-5.6,18.9-17.2,29.3-29.5C321.7,32.3,323.2,31.3,324.3,31.3 M324.3,29.3c-1.8,0-3.7,1.3-6.1,4.2
			c-10.4,12.2-21.8,23.7-29,29.2c-2.4,1.8-9.4,8-15.6,13.9c-0.5,0.5-0.7,1.3-0.5,2c0.2,0.7,0.8,1.3,1.5,1.4
			c17.1,4,30.6,10.3,39.9,18.7c0.4,0.3,0.9,0.5,1.3,0.5c0.3,0,0.7-0.1,1-0.2c1.1-0.6,2.2-1.2,3.2-1.8c1.8-1,3.3-1.9,4.6-2.5
			c3-1.5,5.7-3.1,5.2-5.3c-0.4-1.5-1.9-2-3.2-2.1c6.1-3.8,8.5-6.7,7.8-9.4c-0.6-2.6-3.6-3.9-9.6-4.2c12.1-5.8,12.9-8.1,12.5-10.2
			c-0.6-2.7-4.2-3.1-7.7-3.1c-1.6,0-3.3,0.1-5,0.2c3.7-2,6.7-3.7,9-5.1c4.8-3,6.2-4.6,5.8-6.4c-0.2-0.9-1-2-3.4-2
			c-2.7,0-7.9,1.3-12.5,2.5c0.9-1.4,1.6-2.8,2.1-4c2-4.5,2.9-9.4,2.4-12.4C327.3,29.6,325,29.3,324.3,29.3L324.3,29.3z"/>
		<path class="st2" d="M231.6,73.2l-53.5,0.2h0l-53.5-0.2c0,0-109-3-100,69c0,0,19,89,100,59c0,0,44.2-19.2,53.5-46.4
			c9.2,27.1,53.5,46.4,53.5,46.4c81,30,100-59,100-59C340.6,70.2,231.6,73.2,231.6,73.2z M128.6,176.8c-51.4,27.5-77-16-77-16
			c-42-80,96-67,96-67c16,2,19,26,19,26C170.6,155.8,128.6,176.8,128.6,176.8z M305.6,160.8c0,0-25.6,43.5-77,16c0,0-42-21-38-57
			c0,0,3-24,19-26C209.6,93.8,347.6,80.8,305.6,160.8z"/>
		<path class="st2" d="M222.5,155.8c-2.3,0-6-4.5-8.7-8.5c-9.1-12.1-9.7-25.5-9.7-26c-0.2-3.1,0.9-6,3.1-8.4
			c9-9.7,34.3-10.1,35.3-10.1h0c4.8,0,7.1,0.8,7.5,2.5c0.2,1.2-0.6,4.5-14.1,10.4c-0.1,0-5.2,2.3-9.5,6.6c-5.6,5.7-7.3,12.1-5,19.2
			c3.6,10.7,3.2,13.4,1.7,14.2C223,155.7,222.8,155.8,222.5,155.8z M242.6,104.8c-0.5,0-25.5,0.5-33.9,9.5c-1.9,2.1-2.8,4.3-2.6,7
			c0,0.2,0.6,13.4,9.3,25c2.7,3.9,5.8,7.3,6.9,7.6c0.2-0.6,0.3-2.9-2.6-11.7c-6.2-18.7,15.3-28.1,15.6-28.2
			c7.6-3.3,13.1-7.1,12.9-8.2C248.1,105.6,247.6,104.8,242.6,104.8z"/>
		<path class="st2" d="M83.5,155.8c-2.3,0-6-4.5-8.7-8.5c-9.1-12.1-9.7-25.5-9.7-26c-0.2-3.1,0.9-6,3.1-8.4
			c9-9.7,34.3-10.1,35.3-10.1h0c4.8,0,7.1,0.8,7.5,2.5c0.2,1.2-0.6,4.5-14.1,10.4c-0.1,0-5.2,2.3-9.5,6.6c-5.6,5.7-7.3,12.1-5,19.2
			c3.6,10.7,3.2,13.4,1.7,14.2C84,155.7,83.8,155.8,83.5,155.8z M103.6,104.8c-0.5,0-25.5,0.5-33.9,9.5c-1.9,2.1-2.8,4.3-2.6,7
			c0,0.2,0.6,13.4,9.3,25c2.7,3.9,5.8,7.3,6.9,7.6c0.2-0.6,0.3-2.9-2.6-11.7c-6.2-18.7,15.3-28.1,15.6-28.2
			c7.6-3.3,13.1-7.1,12.9-8.2C109.1,105.6,108.6,104.8,103.6,104.8z"/>
	</g>
</g>
</svg>
